# xmcd
#
# Track frame offsets: 
#        150
#        17793
#        34241
#        52323
#
# Disc length: 897 seconds
#
# Revision: 0
# Processed by: cddbd v1.5.2PL0 Copyright (c) Steve Scherf et al.
# Submitted via: ExactAudioCopy v0.99pb4
#
DISCID=33037f04
DTITLE=India.Arie - I Am Not My Hair (Remixes)
DYEAR=2006
DGENRE=R&B
TTITLE0=I Am Not My Hair (Konvict Remix ft. Akon)
TTITLE1=I Am Not My Hair (Swizz Beats Remix ft. Swizz Beats)
TTITLE2=I Am Not My Hair (Wiggedout Radio Edit)
TTITLE3=I Am Not My Hair (Konvict Remix No Rap)
EXTD=
EXTT0=
EXTT1=
EXTT2=
EXTT3=
PLAYORDER=
